<svg xmlns="http://www.w3.org/2000/svg" viewBox="0 0 512 512" fill="none">
  <defs>
    <linearGradient id="bg" x1="414" y1="58" x2="112" y2="454" gradientUnits="userSpaceOnUse">
      <stop offset="0" stop-color="#F8BC4A"/>
      <stop offset="0.55" stop-color="#FF9220"/>
      <stop offset="1" stop-color="#E65B0A"/>
    </linearGradient>
    <linearGradient id="rightHalf" x1="256" y1="157" x2="378" y2="306" gradientUnits="userSpaceOnUse">
      <stop offset="0" stop-color="#1FB7D3"/>
      <stop offset="1" stop-color="#157DA2"/>
    </linearGradient>
  </defs>

  <rect x="44" y="44" width="424" height="424" rx="78" fill="url(#bg)"/>

  <path d="M256 142c-21-24-60-30-86-10-25-9-54 6-63 33-24 12-34 41-23 66-14 23-11 54 8 74 13 14 30 22 48 22 10 20 30 33 53 33 12 0 24-4 34-11 9 7 21 11 34 11 23 0 43-13 53-33 18 0 35-8 48-22 19-20 22-51 8-74 11-25 1-54-23-66-9-27-38-42-63-33-26-20-65-14-86 10Z" fill="#F47412" stroke="#fff" stroke-width="11" stroke-linejoin="round"/>

  <clipPath id="brainClip">
    <path d="M256 142c-21-24-60-30-86-10-25-9-54 6-63 33-24 12-34 41-23 66-14 23-11 54 8 74 13 14 30 22 48 22 10 20 30 33 53 33 12 0 24-4 34-11 9 7 21 11 34 11 23 0 43-13 53-33 18 0 35-8 48-22 19-20 22-51 8-74 11-25 1-54-23-66-9-27-38-42-63-33-26-20-65-14-86 10Z"/>
  </clipPath>

  <g clip-path="url(#brainClip)">
    <rect x="256" y="120" width="190" height="260" fill="url(#rightHalf)"/>
  </g>

  <path d="M256 152v196" stroke="#fff" stroke-width="10" stroke-linecap="round"/>
  <path d="M256 348c-13 0-23 8-29 20" stroke="#fff" stroke-width="10" stroke-linecap="round"/>
  <path d="M256 348c13 0 23 8 29 20" stroke="#fff" stroke-width="10" stroke-linecap="round"/>

  <g stroke="#fff" stroke-width="9" stroke-linecap="round" stroke-linejoin="round" fill="none">
    <path d="M171 172v28h22v31l-19 22v31"/>
    <path d="M339 172v28h-22v31l19 22v31"/>
    <path d="M166 285h-28"/>
    <path d="M346 247h28"/>
  </g>

  <g fill="#fff">
    <circle cx="171" cy="156" r="10"/>
    <circle cx="193" cy="200" r="9"/>
    <circle cx="193" cy="231" r="7"/>
    <circle cx="174" cy="284" r="11"/>
    <circle cx="339" cy="156" r="10"/>
    <circle cx="317" cy="200" r="9"/>
    <circle cx="317" cy="231" r="7"/>
    <circle cx="336" cy="284" r="11"/>
  </g>

  <g stroke="#fff" stroke-width="8" fill="none">
    <circle cx="138" cy="285" r="14"/>
    <circle cx="374" cy="247" r="14"/>
  </g>

  <path d="M88 318c44 26 100 20 156-7 37-18 72-40 117-50 39-8 75-2 94 13-22 4-30 24-23 42-10 10-22 17-36 20 7-17 1-37-17-46-31-15-81-7-136 21-35 18-67 40-108 54-56 19-106 14-142-9 17-6 29-21 30-38 0 0 0 0 0 0 0 0 0 0 0 0 2-1 31-2 65 0Z" fill="#F28A12" stroke="#fff" stroke-width="7" stroke-linejoin="round"/>
  <path d="M390 142c19 17 27 39 22 58 14 18 15 42-1 60" stroke="#fff" stroke-width="7" stroke-linecap="round"/>
</svg>
