<svg width="420" height="110" viewBox="0 0 420 110" fill="none" xmlns="http://www.w3.org/2000/svg">
  <g transform="translate(0,4)">
    <path d="M40 20C40 8.95 48.95 0 60 0H70V46H60C48.95 46 40 37.05 40 26V20Z" fill="#F97316"/>
    <path d="M70 0H80C91.05 0 100 8.95 100 20V26C100 37.05 91.05 46 80 46H70V0Z" fill="#0891B2"/>
    <path d="M56 34C56 31.8 57.8 30 60 30C62.2 30 64 31.8 64 34C64 36.2 62.2 38 60 38C57.8 38 56 36.2 56 34Z" fill="white"/>
    <path d="M76 13C76 10.8 77.8 9 80 9C82.2 9 84 10.8 84 13C84 15.2 82.2 17 80 17C77.8 17 76 15.2 76 13Z" fill="white"/>
    <path d="M51 14C51 10.7 53.7 8 57 8C60.3 8 63 10.7 63 14C63 17.3 60.3 20 57 20C53.7 20 51 17.3 51 14Z" fill="white"/>
    <path d="M86 31C86 28.2 88.2 26 91 26C93.8 26 96 28.2 96 31C96 33.8 93.8 36 91 36C88.2 36 86 33.8 86 31Z" fill="white"/>
    <path d="M49 23L57 14" stroke="white" stroke-width="2"/>
    <path d="M57 14L70 22" stroke="white" stroke-width="2"/>
    <path d="M80 13L91 31" stroke="white" stroke-width="2"/>
    <path d="M76 13L70 22" stroke="white" stroke-width="2"/>
    <path d="M40 62C44 50 57 44 70 44C83 44 96 50 100 62C97 74 85 82 70 82C55 82 43 74 40 62Z" fill="#F59E0B"/>
    <path d="M28 56C34 43 45 35 62 33" stroke="#F59E0B" stroke-width="6" stroke-linecap="round"/>
    <path d="M112 56C106 43 95 35 78 33" stroke="#F59E0B" stroke-width="6" stroke-linecap="round"/>
  </g>
  <text x="130" y="58" fill="#020617" font-size="56" font-family="Arial, Helvetica, sans-serif" font-weight="700">EduRite</text>
  <text x="130" y="90" fill="#6B7280" font-size="22" font-family="Arial, Helvetica, sans-serif">Education done right</text>
</svg>
