<svg width="420" height="110" viewBox="0 0 420 110" fill="none" xmlns="http://www.w3.org/2000/svg">
  <defs>
    <linearGradient id="bgGradient" x1="20" y1="10" x2="110" y2="100" gradientUnits="userSpaceOnUse">
      <stop offset="0" stop-color="#FF7B1C"/>
      <stop offset="1" stop-color="#F59E0B"/>
    </linearGradient>
    <linearGradient id="leftBrain" x1="39" y1="31" x2="66" y2="71" gradientUnits="userSpaceOnUse">
      <stop offset="0" stop-color="#F97316"/>
      <stop offset="1" stop-color="#EA580C"/>
    </linearGradient>
    <linearGradient id="rightBrain" x1="67" y1="31" x2="94" y2="71" gradientUnits="userSpaceOnUse">
      <stop offset="0" stop-color="#0891B2"/>
      <stop offset="1" stop-color="#0E7490"/>
    </linearGradient>
  </defs>

  <g transform="translate(8,8)">
    <rect x="0" y="0" width="96" height="96" rx="22" fill="url(#bgGradient)"/>

    <path d="M31 66C23 66 16 60 16 51C16 44 21 38 28 36C28 28 34 22 42 22C45 22 48 23 51 25C54 20 60 17 66 17C76 17 84 25 84 35C91 36 96 42 96 49C96 58 89 65 80 65" stroke="white" stroke-width="4.2" stroke-linecap="round" stroke-linejoin="round"/>

    <path d="M56 22V66" stroke="white" stroke-width="3.8" stroke-linecap="round"/>

    <path d="M30 42C30 34 36 28 44 28C48 28 52 30 54 34V62H33C30 60 28 57 28 53C28 49 30 46 33 44" fill="url(#leftBrain)"/>
    <path d="M58 34C60 30 64 28 68 28C76 28 82 34 82 42C85 44 87 49 87 53C87 57 85 60 82 62H58V34Z" fill="url(#rightBrain)"/>

    <circle cx="34" cy="49" r="3.5" fill="white"/>
    <circle cx="42" cy="37" r="3.5" fill="white"/>
    <circle cx="49" cy="47" r="3.5" fill="white"/>
    <path d="M34 49L42 37L49 47" stroke="white" stroke-width="2.1" stroke-linecap="round" stroke-linejoin="round"/>

    <circle cx="64" cy="37" r="3.5" fill="white"/>
    <circle cx="72" cy="49" r="3.5" fill="white"/>
    <circle cx="79" cy="42" r="3.5" fill="white"/>
    <path d="M64 37L72 49L79 42" stroke="white" stroke-width="2.1" stroke-linecap="round" stroke-linejoin="round"/>

    <path d="M13 66C13 59 18 54 24 52" stroke="white" stroke-width="3.2" stroke-linecap="round"/>
    <path d="M95 29C100 34 100 42 96 48" stroke="white" stroke-width="3.2" stroke-linecap="round"/>
    <path d="M20 72C18 66 21 61 26 58" stroke="white" stroke-width="3.2" stroke-linecap="round"/>
    <path d="M92 35C95 41 94 48 89 52" stroke="white" stroke-width="3.2" stroke-linecap="round"/>
  </g>

  <text x="122" y="59" fill="#020617" font-size="56" font-family="Arial, Helvetica, sans-serif" font-weight="700">EduRite</text>
  <text x="122" y="90" fill="#6B7280" font-size="22" font-family="Arial, Helvetica, sans-serif">Education done right</text>
</svg>
